<svg width="30" height="23" viewBox="0 0 30 23" fill="none" xmlns="http://www.w3.org/2000/svg">
<g clip-path="url(#clip0_44:74)">
<path d="M23.6553 0.408211L3.86297 20.2005C3.54633 20.5172 3.54633 21.0306 3.86297 21.3472L4.81021 22.2944C5.12685 22.6111 5.64023 22.6111 5.95687 22.2944L25.7492 2.50211C26.0658 2.18547 26.0658 1.67209 25.7492 1.35545L24.802 0.408212C24.4853 0.0915703 23.9719 0.0915703 23.6553 0.408211Z" fill="white"/>
<path d="M25.7492 20.2006L5.95687 0.40823C5.64023 0.0915884 5.12686 0.0915884 4.81022 0.40823L3.86298 1.35547C3.54634 1.67211 3.54634 2.18549 3.86298 2.50213L23.6553 22.2945C23.9719 22.6111 24.4853 22.6111 24.802 22.2945L25.7492 21.3472C26.0658 21.0306 26.0658 20.5172 25.7492 20.2006Z" fill="white"/>
</g>
<defs>
<clipPath id="clip0_44:74">
<rect width="30" height="22.7027" fill="white"/>
</clipPath>
</defs>
</svg>
