<svg width="100" height="51" viewBox="0 0 100 51" fill="none" xmlns="http://www.w3.org/2000/svg">
<path d="M2.58517 29.5165H5.41809V43.4072H2.58517V29.5165Z" fill="white"/>
<path d="M7.06117 38.6479C7.0593 37.6502 7.35345 36.6743 7.9064 35.8438C8.45935 35.0133 9.24624 34.3655 10.1675 33.9824C11.0887 33.5993 12.1029 33.4981 13.0817 33.6916C14.0605 33.8851 14.9599 34.3646 15.666 35.0695C16.3722 35.7743 16.8534 36.6728 17.0487 37.6512C17.2441 38.6296 17.1448 39.644 16.7634 40.566C16.382 41.4879 15.7357 42.276 14.9062 42.8305C14.0768 43.3851 13.1015 43.681 12.1038 43.681C11.4402 43.6886 10.7819 43.5637 10.1673 43.3135C9.55272 43.0634 8.99423 42.6931 8.52459 42.2243C8.05495 41.7556 7.6836 41.1978 7.43231 40.5836C7.18102 39.9695 7.05484 39.3114 7.06117 38.6479ZM14.2945 38.6479C14.2834 38.2172 14.1455 37.7993 13.8981 37.4466C13.6507 37.0938 13.3048 36.8219 12.9036 36.6647C12.5024 36.5075 12.0638 36.4722 11.6427 36.563C11.2215 36.6538 10.8365 36.8668 10.5357 37.1753C10.235 37.4838 10.0319 37.8742 9.95184 38.2976C9.87179 38.7209 9.91837 39.1585 10.0857 39.5555C10.2531 39.9525 10.5338 40.2914 10.8927 40.5297C11.2517 40.768 11.6729 40.8952 12.1038 40.8953C12.3985 40.9036 12.6918 40.8507 12.9651 40.7399C13.2384 40.6291 13.4858 40.4629 13.6917 40.2517C13.8975 40.0405 14.0574 39.789 14.1611 39.513C14.2649 39.2369 14.3103 38.9424 14.2945 38.6479Z" fill="white"/>
<path d="M28.5346 33.8885V42.9349C28.5346 46.1361 26.0322 47.4865 23.5015 47.4865C22.6116 47.5527 21.7206 47.3727 20.9261 46.9663C20.1316 46.5599 19.4643 45.9427 18.9972 45.1824L21.4335 43.7754C21.6268 44.165 21.9327 44.4877 22.3115 44.7015C22.6903 44.9153 23.1246 45.0105 23.5582 44.9746C23.8434 45.0222 24.1358 45.0036 24.4128 44.9202C24.6898 44.8369 24.9439 44.6911 25.1556 44.494C25.3672 44.2969 25.5308 44.0538 25.6337 43.7835C25.7366 43.5132 25.776 43.2229 25.7489 42.9349V42.0567C25.4159 42.4665 24.9909 42.792 24.5086 43.0069C24.0263 43.2218 23.5001 43.3201 22.9727 43.2938C21.6904 43.2938 20.4607 42.7844 19.5539 41.8777C18.6472 40.971 18.1378 39.7412 18.1378 38.4589C18.1378 37.1766 18.6472 35.9469 19.5539 35.0402C20.4607 34.1335 21.6904 33.6241 22.9727 33.6241C23.4998 33.6 24.0252 33.6993 24.5072 33.914C24.9892 34.1288 25.4144 34.4531 25.7489 34.8611V33.9168L28.5346 33.8885ZM25.7489 38.4589C25.7678 37.9997 25.6488 37.5453 25.4074 37.1541C25.1659 36.763 24.813 36.453 24.394 36.2641C23.975 36.0751 23.509 36.0158 23.056 36.0938C22.603 36.1717 22.1837 36.3834 21.852 36.7015C21.5202 37.0197 21.2912 37.4298 21.1944 37.8791C21.0975 38.3284 21.1373 38.7965 21.3086 39.223C21.4799 39.6496 21.7748 40.0151 22.1555 40.2727C22.5362 40.5304 22.9852 40.6682 23.4448 40.6686C23.7449 40.6898 24.046 40.648 24.3288 40.5457C24.6117 40.4434 24.87 40.2831 25.0871 40.0749C25.3041 39.8667 25.4752 39.6153 25.5892 39.337C25.7032 39.0587 25.7576 38.7596 25.7489 38.4589Z" fill="white"/>
<path d="M30.1683 38.6479C30.1664 37.6502 30.4606 36.6743 31.0135 35.8438C31.5665 35.0133 32.3534 34.3655 33.2746 33.9824C34.1958 33.5993 35.21 33.4981 36.1888 33.6916C37.1676 33.8851 38.067 34.3646 38.7732 35.0695C39.4793 35.7743 39.9605 36.6728 40.1559 37.6512C40.3512 38.6296 40.2519 39.644 39.8705 40.566C39.4891 41.4879 38.8428 42.276 38.0134 42.8305C37.1839 43.3851 36.2086 43.681 35.2109 43.681C34.5474 43.6886 33.889 43.5637 33.2744 43.3135C32.6598 43.0634 32.1013 42.6931 31.6317 42.2243C31.1621 41.7556 30.7907 41.1978 30.5394 40.5836C30.2881 39.9695 30.1619 39.3114 30.1683 38.6479ZM37.4017 38.6479C37.3905 38.2172 37.2526 37.7993 37.0052 37.4466C36.7578 37.0938 36.4119 36.8219 36.0107 36.6647C35.6096 36.5075 35.171 36.4722 34.7498 36.563C34.3286 36.6538 33.9436 36.8668 33.6428 37.1753C33.3421 37.4838 33.139 37.8742 33.0589 38.2976C32.9789 38.7209 33.0255 39.1585 33.1928 39.5555C33.3602 39.9525 33.6409 40.2914 33.9998 40.5297C34.3588 40.768 34.78 40.8952 35.2109 40.8953C35.5041 40.9009 35.7953 40.8461 36.0664 40.7341C36.3374 40.6221 36.5825 40.4555 36.7863 40.2446C36.9901 40.0338 37.1482 39.7831 37.2509 39.5084C37.3535 39.2337 37.3984 38.9407 37.3828 38.6479H37.4017Z" fill="white"/>
<path d="M41.5661 31.339C41.5661 30.9991 41.6669 30.6668 41.8557 30.3842C42.0446 30.1016 42.313 29.8813 42.627 29.7512C42.9411 29.6211 43.2866 29.5871 43.62 29.6534C43.9534 29.7197 44.2596 29.8834 44.5 30.1237C44.7404 30.3641 44.904 30.6703 44.9703 31.0037C45.0367 31.3371 45.0026 31.6827 44.8726 31.9967C44.7425 32.3107 44.5222 32.5792 44.2396 32.768C43.9569 32.9568 43.6247 33.0576 43.2847 33.0576C42.8297 33.0552 42.394 32.8733 42.0722 32.5515C41.7504 32.2298 41.5686 31.7941 41.5661 31.339ZM41.8588 33.8886H44.6917V43.4072H41.8588V33.8886Z" fill="white"/>
<path d="M57.0431 38.648C57.0774 39.2772 56.987 39.907 56.777 40.5011C56.5669 41.0952 56.2415 41.6419 55.8193 42.1097C55.3971 42.5775 54.8866 42.9572 54.3171 43.2269C53.7476 43.4966 53.1304 43.651 52.501 43.6812C51.9726 43.7065 51.445 43.6157 50.9556 43.415C50.4661 43.2143 50.0266 42.9087 49.6681 42.5197V47.2412H46.8352V33.8887H49.6681V34.7858C50.0266 34.3968 50.4661 34.0912 50.9556 33.8905C51.445 33.6898 51.9726 33.599 52.501 33.6243C53.1296 33.6545 53.746 33.8086 54.3148 34.0777C54.8837 34.3469 55.3938 34.7257 55.8158 35.1925C56.2379 35.6593 56.5635 36.2048 56.7741 36.7978C56.9848 37.3908 57.0762 38.0196 57.0431 38.648ZM54.2102 38.648C54.199 38.2048 54.058 37.7746 53.8047 37.4107C53.5514 37.0469 53.197 36.7652 52.7853 36.6008C52.3736 36.4363 51.9226 36.3962 51.4884 36.4855C51.0541 36.5747 50.6555 36.7894 50.342 37.1029C50.0285 37.4164 49.8139 37.8149 49.7246 38.2492C49.6354 38.6835 49.6755 39.1344 49.8399 39.5461C50.0044 39.9578 50.286 40.3123 50.6499 40.5655C51.0138 40.8188 51.444 40.9598 51.8872 40.971C52.1965 40.9907 52.5064 40.9439 52.7962 40.8339C53.0859 40.7238 53.3487 40.553 53.567 40.333C53.7852 40.1129 53.9539 39.8487 54.0616 39.5581C54.1692 39.2675 54.2135 38.9572 54.1913 38.648H54.2102Z" fill="white"/>
<path d="M65.863 40.5554C65.863 42.7462 63.9744 43.681 61.8969 43.681C61.067 43.7545 60.2341 43.5779 59.5054 43.174C58.7768 42.7701 58.1856 42.1574 57.8081 41.4147L60.2822 40.0077C60.3826 40.3512 60.5976 40.65 60.8913 40.8544C61.1851 41.0588 61.5399 41.1566 61.8969 41.1314C62.5863 41.1314 62.9262 40.9142 62.9262 40.5365C62.9262 39.4883 58.2047 40.0455 58.2047 36.7593C58.2047 34.6818 59.9611 33.6336 61.9819 33.6336C62.7276 33.611 63.4658 33.7881 64.12 34.1468C64.7742 34.5054 65.3205 35.0325 65.7025 35.6733L63.219 36.9765C63.1093 36.7271 62.9295 36.5149 62.7015 36.3657C62.4735 36.2165 62.2072 36.1367 61.9347 36.136C61.4437 36.136 61.1415 36.3249 61.1415 36.6743C61.1793 37.7602 65.863 37.0331 65.863 40.5554Z" fill="white"/>
<path d="M76.2881 33.8885V43.4072H73.4551V42.5196C73.1256 42.914 72.7074 43.2248 72.2347 43.4267C71.7621 43.6286 71.2483 43.7156 70.7355 43.681C68.8469 43.681 67.1755 42.3117 67.1755 39.7338V33.8885H70.0084V39.3184C69.9835 39.5498 70.0105 39.7838 70.0873 40.0035C70.1641 40.2232 70.2888 40.423 70.4525 40.5885C70.6161 40.754 70.8146 40.8808 71.0334 40.96C71.2522 41.0393 71.486 41.0688 71.7176 41.0465C72.7564 41.0465 73.4835 40.4421 73.4835 39.0918V33.8885H76.2881Z" fill="white"/>
<path d="M92.6623 37.5713V43.4071H89.8293V37.8169C89.8293 36.8726 89.3666 36.2493 88.4601 36.2493C87.5536 36.2493 86.9681 36.9198 86.9681 38.0435V43.4071H84.1352V37.8169C84.1352 36.8726 83.6819 36.2493 82.7659 36.2493C81.85 36.2493 81.2834 36.9198 81.2834 38.0435V43.4071H78.4505V33.8886H81.2834V34.7668C81.5795 34.3789 81.9678 34.0712 82.4131 33.8717C82.8584 33.6721 83.3465 33.587 83.833 33.6242C84.3216 33.6004 84.8081 33.7037 85.2449 33.9237C85.6818 34.1438 86.0542 34.4733 86.326 34.8801C86.642 34.4548 87.0607 34.1165 87.5429 33.8969C88.0251 33.6773 88.5551 33.5834 89.0833 33.6242C91.2364 33.6242 92.6623 35.1917 92.6623 37.5713Z" fill="white"/>
<path d="M95.0798 33.8319C96.248 33.8319 97.195 32.8848 97.195 31.7166C97.195 30.5484 96.248 29.6014 95.0798 29.6014C93.9116 29.6014 92.9645 30.5484 92.9645 31.7166C92.9645 32.8848 93.9116 33.8319 95.0798 33.8319Z" fill="white"/>
<path d="M34.6443 22.3115C40.1151 22.3115 44.55 17.8765 44.55 12.4057C44.55 6.93496 40.1151 2.5 34.6443 2.5C29.1735 2.5 24.7385 6.93496 24.7385 12.4057C24.7385 17.8765 29.1735 22.3115 34.6443 22.3115Z" fill="#394149"/>
<path d="M56.7882 22.3115C62.259 22.3115 66.6939 17.8765 66.6939 12.4057C66.6939 6.93496 62.259 2.5 56.7882 2.5C51.3174 2.5 46.8824 6.93496 46.8824 12.4057C46.8824 17.8765 51.3174 22.3115 56.7882 22.3115Z" fill="#FF00F5"/>
<path d="M22.4061 2.5H2.60406V22.302H22.4061V2.5Z" fill="#FF00F5"/>
</svg>
