<svg width="30" height="23" viewBox="0 0 30 23" fill="none" xmlns="http://www.w3.org/2000/svg">
<g clip-path="url(#clip0_37:138)">
<path d="M20.9048 0H0.810811C0.363012 0 0 0.363012 0 0.810811V2.15041C0 2.59821 0.363012 2.96122 0.810811 2.96122H20.9048C21.3526 2.96122 21.7156 2.59821 21.7156 2.15041V0.810811C21.7156 0.363012 21.3526 0 20.9048 0Z" fill="#FF00F5"/>
<path d="M28.8014 9.87073H0.810811C0.363012 9.87073 0 10.2337 0 10.6815V12.0211C0 12.4689 0.363012 12.8319 0.810811 12.8319H28.8014C29.2492 12.8319 29.6122 12.4689 29.6122 12.0211V10.6815C29.6122 10.2337 29.2492 9.87073 28.8014 9.87073Z" fill="#FF00F5"/>
<path d="M18.9306 19.7415H0.810811C0.363012 19.7415 0 20.1045 0 20.5523V21.8919C0 22.3397 0.363012 22.7027 0.810811 22.7027H18.9306C19.3784 22.7027 19.7415 22.3397 19.7415 21.8919V20.5523C19.7415 20.1045 19.3784 19.7415 18.9306 19.7415Z" fill="#FF00F5"/>
</g>
<defs>
<clipPath id="clip0_37:138">
<rect width="30" height="22.7027" fill="white"/>
</clipPath>
</defs>
</svg>
