<svg width="32" height="21" viewBox="0 0 32 21" fill="none" xmlns="http://www.w3.org/2000/svg">
<path fill-rule="evenodd" clip-rule="evenodd" d="M0.00980405 14.1408C0.00334148 14.0948 0 14.0478 0 14C0 6.28 6.28 0 14 0C14.553 0 15 0.447 15 1C15 1.553 14.553 2 14 2C9.18435 2 5.02229 4.85109 3.11309 8.954C4.10004 8.34904 5.26005 8 6.5 8C10.084 8 13 10.916 13 14.5C13 18.084 10.084 21 6.5 21C2.916 21 0 18.084 0 14.5C0 14.3795 0.0032965 14.2597 0.00980405 14.1408Z" fill="#FF00F5"/>
<path fill-rule="evenodd" clip-rule="evenodd" d="M17.0098 14.1408C17.0033 14.0948 17 14.0478 17 14C17 6.28 23.28 0 31 0C31.553 0 32 0.447 32 1C32 1.553 31.553 2 31 2C26.1844 2 22.0223 4.85109 20.1131 8.954C21.1 8.34904 22.26 8 23.5 8C27.084 8 30 10.916 30 14.5C30 18.084 27.084 21 23.5 21C19.916 21 17 18.084 17 14.5C17 14.3795 17.0033 14.2597 17.0098 14.1408Z" fill="#FF00F5"/>
</svg>
